<svg xmlns="http://www.w3.org/2000/svg" width="515" height="397" fill="none"><g clip-path="url('#clip0_21779_892')"><path fill="#344F10" fill-rule="evenodd" d="M215.868 14.873c143.911-19.112 226.858-20.541 380.265 0l.867.117v68.26h-9.073v31.445h-16.192a71.675 71.675 0 0 0-.957 7.029c-.376 4.457-.355 9.756 1.075 13.584 1.523 4.08 5.375 8.439 8.964 11.842a80 80 0 0 0 6.162 5.264q.262.2.402.304l.04.03.063.047.026.019.006.004.001.001-.004.005.004-.005.41.299v25.963H597v161.224h-9.073v36.749l-.795.166c-125.899 26.354-206.367 26.395-360.626.007l-.832-.142v-36.78H215V179.081h10.674v-26.038l.508-.287c.869-.492 1.761-.974 2.661-1.46 2.799-1.514 5.67-3.066 8.161-5.072 3.239-2.607 5.712-5.897 6.29-10.686l.001-.011.002-.011c.928-6.508 1.063-10.959.085-20.821h-17.708V83.25H215V14.989zm11.806 325.544c146.733 15.591 225.597 15.607 358.253.013v34.999c-124.925 26.079-205.057 26.125-358.253-.031zm17.718-225.722h324.309q-.09.485-.197 1.13a74 74 0 0 0-.719 5.731c-.248 2.939-.343 6.383.066 9.607H245.824c.402-4.595.299-9.037-.432-16.468m.228 18.468h323.558c.204.994.467 1.95.801 2.844 1.696 4.543 5.85 9.169 9.462 12.594a83 83 0 0 0 6.322 5.401l.164.125v25.578c-139.368 6.756-218.415 6.24-358.253-.081v-25.412c.64-.356 1.306-.715 1.988-1.084l.004-.002.001-.001.008-.004.003-.001v-.001c2.831-1.529 5.932-3.204 8.581-5.337 3.514-2.829 6.359-6.549 7.019-11.994.129-.907.243-1.776.342-2.625m325.296-20.468h15.011V83.25H227.674v29.445h343.242M226.674 81.25H595V16.74c-152.359-20.355-235.06-18.944-378 0v64.51zm-.045 100.329.022-.498H217v157.224h9.727l.053.006c147.723 15.738 226.528 15.747 360.03.001l.058-.007H595V181.081h-6.447l.024.497c-141.348 6.905-220.607 6.404-361.948.001" clip-rule="evenodd"/><circle cx="194.5" cy="50.5" r="2.5" fill="#333" transform="rotate(-180 194.5 50.5)"/><circle cx="194.5" cy="123.5" r="2.5" fill="#333" transform="rotate(-180 194.5 123.5)"/><circle cx="194.5" cy="199.5" r="2.5" fill="#333"/><path fill="#333" d="M193 51h-76v-1h76zM193 124h-76v-1h76zM193 200h-76v-1h76z"/><circle cx="194.5" cy="199.5" r="2.5" fill="#333"/><circle cx="194.5" cy="272.5" r="2.5" fill="#333"/><path fill="#333" d="M193 273h-76v-1h76z"/><circle cx="194.5" cy="272.5" r="2.5" fill="#333"/><circle cx="194.5" cy="272.5" r="2.5" fill="#333"/><circle cx="194.5" cy="272.5" r="2.5" fill="#333"/><circle cx="194.5" cy="344.5" r="2.5" fill="#333"/><path fill="#333" d="M193 345h-76v-1h76z"/><circle cx="194.5" cy="344.5" r="2.5" fill="#333"/><circle cx="194.5" cy="344.5" r="2.5" fill="#333"/><circle cx="194.5" cy="344.5" r="2.5" fill="#333"/></g><path fill="#333" d="m55.546 55.998-4.592-5.088v5.088h-1.456V44.846h1.456v5.168l4.608-5.168h1.84l-5.056 5.584 5.104 5.568zm2.986-4.416q0-1.344.544-2.352a3.95 3.95 0 0 1 1.488-1.584q.96-.56 2.128-.56 1.151 0 2 .496.847.497 1.264 1.248v-1.6h1.472v8.768h-1.472v-1.632q-.432.768-1.296 1.28-.849.496-1.984.496a3.97 3.97 0 0 1-2.112-.576 4.04 4.04 0 0 1-1.488-1.616q-.544-1.04-.544-2.368m7.424.016q0-.991-.4-1.728a2.75 2.75 0 0 0-1.088-1.12 2.85 2.85 0 0 0-1.488-.4q-.816 0-1.488.384-.672.385-1.072 1.12t-.4 1.728q0 1.008.4 1.76a2.9 2.9 0 0 0 1.072 1.136q.672.384 1.488.384t1.488-.384a2.86 2.86 0 0 0 1.088-1.136q.4-.751.4-1.744m7.756 4.544a4.53 4.53 0 0 1-2.24-.56 4.07 4.07 0 0 1-1.568-1.584q-.56-1.04-.56-2.4 0-1.344.576-2.368a4 4 0 0 1 1.6-1.584q1.008-.56 2.256-.56t2.256.56q1.008.545 1.584 1.568.592 1.025.592 2.384 0 1.36-.608 2.4a4.1 4.1 0 0 1-1.616 1.584q-1.023.56-2.272.56m0-1.28q.785 0 1.472-.368a2.75 2.75 0 0 0 1.104-1.104q.432-.736.432-1.792t-.416-1.792-1.088-1.088a3 3 0 0 0-1.456-.368q-.8 0-1.472.368-.656.353-1.056 1.088t-.4 1.792q0 1.073.384 1.808.4.737 1.056 1.104.657.352 1.44.352m7.867-10.704v11.84h-1.456v-11.84zm3.233 1.648a.96.96 0 0 1-.704-.288.96.96 0 0 1-.288-.704q0-.416.288-.704a.96.96 0 0 1 .704-.288q.4 0 .672.288a.96.96 0 0 1 .288.704.96.96 0 0 1-.288.704.89.89 0 0 1-.672.288m.704 1.424v8.768H84.06V47.23zm6.754-.16q1.599 0 2.592.976.992.96.992 2.784v5.168h-1.44v-4.96q0-1.311-.656-2-.657-.704-1.792-.704-1.153 0-1.84.72-.672.72-.672 2.096v4.848h-1.456V47.23h1.456v1.248a2.9 2.9 0 0 1 1.168-1.04 3.7 3.7 0 0 1 1.648-.368M60.424 132.11q-1.104 0-1.984-.384-.865-.4-1.36-1.088a2.82 2.82 0 0 1-.512-1.616h1.552q.08.785.64 1.328.576.528 1.664.528 1.041 0 1.632-.512.608-.528.608-1.344 0-.64-.352-1.04a2.26 2.26 0 0 0-.88-.608 14 14 0 0 0-1.424-.448q-1.104-.288-1.776-.576a2.94 2.94 0 0 1-1.136-.896q-.464-.623-.464-1.664 0-.912.464-1.616.465-.704 1.296-1.088.848-.384 1.936-.384 1.569 0 2.56.784 1.008.784 1.136 2.08h-1.6q-.08-.64-.672-1.12-.591-.495-1.568-.496-.912 0-1.488.48-.576.465-.576 1.312 0 .609.336.992.353.384.848.592.513.192 1.424.448 1.104.305 1.776.608.672.288 1.152.912.48.609.48 1.664 0 .816-.432 1.536-.431.72-1.28 1.168-.848.448-2 .448m6.607-10.304a.96.96 0 0 1-.704-.288.96.96 0 0 1-.288-.704q0-.416.288-.704a.96.96 0 0 1 .704-.288q.399 0 .672.288a.96.96 0 0 1 .288.704.96.96 0 0 1-.288.704.89.89 0 0 1-.672.288m.704 1.424v8.768h-1.456v-8.768zm5.745 7.424 2.72-7.424h1.552l-3.44 8.768h-1.696l-3.44-8.768h1.568zm5.161-3.072q0-1.344.544-2.352a3.96 3.96 0 0 1 1.488-1.584 4.15 4.15 0 0 1 2.128-.56q1.152 0 2 .496t1.264 1.248v-1.6h1.472v8.768h-1.472v-1.632q-.432.768-1.296 1.28-.848.496-1.984.496a4 4 0 0 1-2.112-.576 4.04 4.04 0 0 1-1.488-1.616q-.543-1.04-.544-2.368m7.424.016q0-.992-.4-1.728a2.76 2.76 0 0 0-1.088-1.12 2.86 2.86 0 0 0-1.488-.4q-.816 0-1.488.384a2.8 2.8 0 0 0-1.072 1.12q-.4.736-.4 1.728 0 1.008.4 1.76.4.737 1.072 1.136.672.384 1.488.384t1.488-.384a2.86 2.86 0 0 0 1.088-1.136q.4-.751.4-1.744m8.829 4.4-3.44-3.872v3.872h-1.456v-11.84h1.456v6.96l3.376-3.888h2.032l-4.128 4.368 4.144 4.4zM30.204 199.414q0-1.632.736-2.928a5.36 5.36 0 0 1 2-2.048 5.6 5.6 0 0 1 2.832-.736q1.824 0 3.184.88t1.984 2.496h-1.744q-.465-1.008-1.344-1.552-.864-.543-2.08-.544-1.169 0-2.096.544a3.8 3.8 0 0 0-1.456 1.552q-.528.993-.528 2.336 0 1.328.528 2.336a3.8 3.8 0 0 0 1.456 1.536q.927.544 2.096.544 1.215 0 2.08-.528.879-.544 1.344-1.552h1.744q-.624 1.6-1.984 2.48-1.36.864-3.184.864-1.553 0-2.832-.72a5.4 5.4 0 0 1-2-2.032q-.736-1.296-.736-2.928m12.359 1.168q0-1.344.544-2.352a3.96 3.96 0 0 1 1.488-1.584 4.15 4.15 0 0 1 2.128-.56q1.152 0 2 .496.848.497 1.264 1.248v-1.6h1.472v8.768h-1.472v-1.632q-.432.768-1.296 1.28-.848.496-1.984.496a3.97 3.97 0 0 1-2.112-.576 4.04 4.04 0 0 1-1.488-1.616q-.544-1.04-.544-2.368m7.424.016q0-.991-.4-1.728a2.76 2.76 0 0 0-1.088-1.12 2.86 2.86 0 0 0-1.488-.4q-.816 0-1.488.384a2.8 2.8 0 0 0-1.072 1.12q-.4.737-.4 1.728 0 1.008.4 1.76.4.737 1.072 1.136.672.384 1.488.384t1.488-.384a2.86 2.86 0 0 0 1.088-1.136q.4-.751.4-1.744m5.389-7.44v11.84H53.92v-11.84zm1.937 7.44q0-1.36.544-2.368a3.93 3.93 0 0 1 1.504-1.584q.976-.56 2.224-.56 1.616 0 2.656.784 1.056.784 1.392 2.176h-1.568a2.24 2.24 0 0 0-.88-1.264q-.64-.464-1.6-.464-1.248 0-2.016.864-.768.849-.768 2.416 0 1.584.768 2.448t2.016.864q.96 0 1.6-.448.64-.447.88-1.28h1.568q-.352 1.344-1.408 2.16-1.056.8-2.64.8-1.248 0-2.224-.56a3.9 3.9 0 0 1-1.504-1.584q-.544-1.023-.544-2.4m11.015-5.792a.96.96 0 0 1-.704-.288.96.96 0 0 1-.288-.704q0-.416.288-.704a.96.96 0 0 1 .704-.288q.399 0 .672.288a.96.96 0 0 1 .288.704.96.96 0 0 1-.288.704.89.89 0 0 1-.672.288m.704 1.424v8.768h-1.456v-8.768zm10.257 0v8.768h-1.456v-1.296q-.415.672-1.168 1.056a3.6 3.6 0 0 1-1.632.368q-1.024 0-1.84-.416a3.2 3.2 0 0 1-1.296-1.28q-.465-.847-.464-2.064v-5.136h1.44v4.944q0 1.296.656 2 .657.688 1.792.688 1.168 0 1.84-.72t.672-2.096v-4.816zm13.003-.16q1.023 0 1.824.432.8.417 1.264 1.264.464.849.464 2.064v5.168h-1.44v-4.96q0-1.311-.656-2-.64-.704-1.744-.704-1.136 0-1.808.736-.672.72-.672 2.096v4.832h-1.44v-4.96q0-1.311-.656-2-.64-.704-1.744-.704-1.136 0-1.808.736-.672.72-.672 2.096v4.832h-1.456v-8.768h1.456v1.264a2.9 2.9 0 0 1 1.152-1.056 3.6 3.6 0 0 1 1.616-.368q1.103 0 1.952.496.847.496 1.264 1.456a2.88 2.88 0 0 1 1.216-1.44 3.6 3.6 0 0 1 1.888-.512M2.813 279.814h3.904v1.184h-5.36v-11.152h1.456zm6.202-9.008a.96.96 0 0 1-.704-.288.96.96 0 0 1-.288-.704q0-.416.288-.704a.96.96 0 0 1 .704-.288q.4 0 .672.288a.96.96 0 0 1 .288.704.96.96 0 0 1-.288.704.89.89 0 0 1-.672.288m.704 1.424v8.768H8.263v-8.768zm1.938 4.368q0-1.36.544-2.368a3.93 3.93 0 0 1 1.504-1.584q.976-.56 2.224-.56 1.615 0 2.656.784 1.056.784 1.392 2.176h-1.568a2.24 2.24 0 0 0-.88-1.264q-.64-.464-1.6-.464-1.248 0-2.016.864-.768.849-.768 2.416 0 1.584.768 2.448t2.016.864q.96 0 1.6-.448.64-.447.88-1.28h1.568q-.352 1.344-1.408 2.16-1.056.8-2.64.8-1.248 0-2.224-.56a3.9 3.9 0 0 1-1.504-1.584q-.544-1.023-.544-2.4m14.087 4.544q-1.233 0-2.24-.56a4.07 4.07 0 0 1-1.569-1.584q-.56-1.04-.56-2.4 0-1.344.576-2.368a4 4 0 0 1 1.6-1.584q1.01-.56 2.257-.56t2.256.56q1.007.545 1.584 1.568.591 1.025.591 2.384 0 1.36-.608 2.4a4.1 4.1 0 0 1-1.616 1.584q-1.024.56-2.271.56m0-1.28q.784 0 1.471-.368a2.74 2.74 0 0 0 1.105-1.104q.431-.736.431-1.792t-.416-1.792q-.416-.735-1.088-1.088a3 3 0 0 0-1.456-.368q-.8 0-1.471.368-.657.353-1.056 1.088-.4.736-.4 1.792 0 1.073.383 1.808.401.737 1.056 1.104.657.352 1.44.352m7.866-6.208q.383-.751 1.088-1.168.72-.416 1.744-.416v1.504h-.384q-2.448 0-2.448 2.656v4.768h-1.456v-8.768h1.456zm5.265-2.848a.96.96 0 0 1-.704-.288.96.96 0 0 1-.288-.704q0-.416.288-.704a.96.96 0 0 1 .704-.288q.399 0 .672.288a.96.96 0 0 1 .288.704.96.96 0 0 1-.288.704.89.89 0 0 1-.672.288m.704 1.424v8.768h-1.456v-8.768zm1.937 4.368q0-1.36.544-2.368a3.93 3.93 0 0 1 1.504-1.584q.976-.56 2.224-.56 1.617 0 2.656.784 1.056.784 1.392 2.176h-1.568a2.24 2.24 0 0 0-.88-1.264q-.64-.464-1.6-.464-1.248 0-2.016.864-.768.849-.768 2.416 0 1.584.768 2.448t2.016.864q.96 0 1.6-.448.64-.447.88-1.28h1.568q-.352 1.344-1.408 2.16-1.056.8-2.64.8-1.248 0-2.224-.56a3.9 3.9 0 0 1-1.504-1.584q-.544-1.023-.544-2.4m18.263-.32q0 .417-.048.88h-7.008q.08 1.296.88 2.032.816.72 1.968.72.945 0 1.568-.432.64-.447.896-1.184h1.568a3.8 3.8 0 0 1-1.408 2.064q-1.056.784-2.624.784-1.248 0-2.24-.56a4 4 0 0 1-1.536-1.584q-.56-1.04-.56-2.4t.544-2.384a3.8 3.8 0 0 1 1.52-1.568q.992-.56 2.272-.56 1.248 0 2.208.544t1.472 1.504q.528.944.528 2.144m-1.504-.304q0-.831-.368-1.424a2.3 2.3 0 0 0-1.008-.912 3 3 0 0 0-1.392-.32q-1.104 0-1.888.704-.769.705-.88 1.952zm9.147-2.32q.384-.751 1.088-1.168.72-.416 1.744-.416v1.504h-.384q-2.448 0-2.448 2.656v4.768h-1.456v-8.768h1.456zm8.337 7.488q-1.232 0-2.24-.56a4.07 4.07 0 0 1-1.568-1.584q-.56-1.04-.56-2.4 0-1.344.576-2.368a4 4 0 0 1 1.6-1.584q1.008-.56 2.256-.56t2.256.56q1.008.545 1.584 1.568.592 1.025.592 2.384 0 1.36-.608 2.4a4.1 4.1 0 0 1-1.616 1.584q-1.024.56-2.272.56m0-1.28q.784 0 1.472-.368a2.74 2.74 0 0 0 1.104-1.104q.432-.736.432-1.792t-.416-1.792q-.416-.735-1.088-1.088a3 3 0 0 0-1.456-.368q-.8 0-1.472.368-.656.353-1.056 1.088t-.4 1.792q0 1.073.384 1.808.4.737 1.056 1.104.657.352 1.44.352m10.234 1.28q-1.23 0-2.24-.56a4.07 4.07 0 0 1-1.567-1.584q-.56-1.04-.56-2.4 0-1.344.575-2.368a4 4 0 0 1 1.6-1.584q1.008-.56 2.257-.56 1.247 0 2.255.56 1.008.545 1.584 1.568.593 1.025.593 2.384 0 1.36-.608 2.4a4.1 4.1 0 0 1-1.617 1.584q-1.024.56-2.272.56m0-1.28q.784 0 1.473-.368a2.74 2.74 0 0 0 1.104-1.104q.431-.736.431-1.792t-.416-1.792q-.416-.735-1.087-1.088a3 3 0 0 0-1.457-.368q-.8 0-1.471.368-.657.353-1.056 1.088-.4.736-.4 1.792 0 1.073.383 1.808.401.737 1.056 1.104.657.352 1.44.352m8.187-6.432v5.168q0 .64.272.912.272.256.944.256h1.072v1.232h-1.312q-1.216 0-1.824-.56t-.608-1.84v-5.168h-1.136v-1.2h1.136v-2.208h1.456v2.208h2.288v1.2zM34.205 342.846v1.184h-3.04v9.968H29.71v-9.968h-3.056v-1.184zm9.569 2.384v8.768h-1.456v-1.296q-.417.672-1.168 1.056a3.6 3.6 0 0 1-1.632.368q-1.024 0-1.84-.416a3.2 3.2 0 0 1-1.296-1.28q-.464-.848-.464-2.064v-5.136h1.44v4.944q0 1.296.656 2 .655.688 1.792.688 1.168 0 1.84-.72t.672-2.096v-4.816zm3.914 1.424q.384-.751 1.088-1.168.72-.416 1.744-.416v1.504h-.384q-2.448 0-2.448 2.656v4.768h-1.456v-8.768h1.456zm15.057-1.584q1.023 0 1.824.432.8.417 1.264 1.264.464.849.464 2.064v5.168h-1.44v-4.96q0-1.311-.656-2-.64-.704-1.744-.704-1.136 0-1.808.736-.672.72-.672 2.096v4.832h-1.44v-4.96q0-1.311-.656-2-.64-.704-1.744-.704-1.137 0-1.808.736-.672.72-.672 2.096v4.832H52.2v-8.768h1.456v1.264a2.9 2.9 0 0 1 1.152-1.056 3.6 3.6 0 0 1 1.616-.368q1.103 0 1.952.496.847.496 1.264 1.456a2.88 2.88 0 0 1 1.216-1.44 3.6 3.6 0 0 1 1.888-.512m13.94 4.208q0 .417-.048.88H69.63q.08 1.296.88 2.032.816.72 1.968.72.944 0 1.568-.432.64-.447.896-1.184h1.568a3.8 3.8 0 0 1-1.408 2.064q-1.056.784-2.624.784-1.248 0-2.24-.56a4 4 0 0 1-1.536-1.584q-.56-1.04-.56-2.4t.544-2.384a3.8 3.8 0 0 1 1.52-1.568q.993-.56 2.272-.56 1.248 0 2.208.544t1.472 1.504q.528.944.528 2.144m-1.504-.304q0-.831-.368-1.424a2.3 2.3 0 0 0-1.008-.912 3 3 0 0 0-1.392-.32q-1.104 0-1.888.704-.768.705-.88 1.952zm4.882-2.32q.384-.751 1.088-1.168.72-.416 1.744-.416v1.504h-.384q-2.448 0-2.448 2.656v4.768h-1.456v-8.768h1.456zm5.265-2.848a.96.96 0 0 1-.704-.288.96.96 0 0 1-.288-.704q0-.416.288-.704a.96.96 0 0 1 .704-.288q.399 0 .672.288a.96.96 0 0 1 .288.704.96.96 0 0 1-.288.704.89.89 0 0 1-.672.288m.704 1.424v8.768h-1.456v-8.768zm1.937 4.368q0-1.36.544-2.368a3.93 3.93 0 0 1 1.504-1.584q.975-.56 2.224-.56 1.617 0 2.656.784 1.056.784 1.392 2.176h-1.568a2.24 2.24 0 0 0-.88-1.264q-.64-.464-1.6-.464-1.248 0-2.016.864-.768.849-.768 2.416 0 1.584.768 2.448t2.016.864q.96 0 1.6-.448.64-.447.88-1.28h1.568q-.351 1.344-1.408 2.16-1.056.8-2.64.8-1.248 0-2.224-.56a3.9 3.9 0 0 1-1.504-1.584q-.543-1.023-.544-2.4"/><defs><clipPath id="clip0_21779_892"><path fill="#fff" d="M117-.002h398v397H117z"/></clipPath></defs></svg>